<?xml version="1.0" encoding="UTF-8"?>
<svg xmlns="http://www.w3.org/2000/svg" xmlns:xlink="http://www.w3.org/1999/xlink" width="px" height="px" viewBox="0 0 113 113" version="1.1">
<g id="surface1">
<path style=" stroke:none;fill-rule:nonzero;fill:rgb(0%,0%,0%);fill-opacity:1;" d="M 51.019531 12.769531 C 50.214844 13.171875 47.90625 13.972656 45.894531 14.527344 C 43.882812 15.128906 41.320312 16.335938 40.113281 17.242188 C 34.835938 21.3125 34.132812 24.832031 35.488281 41.773438 L 35.738281 45.59375 L 34.132812 45.945312 C 31.769531 46.394531 30.3125 47.503906 30.058594 49.011719 C 29.757812 50.570312 30.613281 51.324219 31.015625 49.816406 C 31.164062 49.210938 31.515625 48.757812 31.769531 48.757812 C 32.019531 48.757812 32.121094 48.960938 31.96875 49.160156 C 31.820312 49.414062 32.222656 49.5625 32.824219 49.5625 C 33.425781 49.511719 34.132812 49.210938 34.332031 48.859375 C 34.632812 48.355469 34.933594 48.40625 35.539062 49.058594 C 36.34375 49.863281 36.34375 54.941406 35.386719 76.707031 C 35.136719 81.785156 35.238281 84.097656 35.691406 84.902344 C 35.992188 85.554688 36.492188 88.117188 36.695312 90.632812 C 37.199219 95.859375 37.5 96.261719 41.972656 98.320312 C 49.664062 101.839844 62.882812 101.941406 70.777344 98.523438 C 74.644531 96.863281 75.25 95.960938 75.902344 90.480469 C 76.253906 87.613281 76.757812 85.402344 77.261719 84.851562 C 77.914062 84.148438 77.964844 82.992188 77.710938 77.5625 C 77.5625 74.042969 77.261719 66.300781 77.109375 60.472656 C 76.859375 51.324219 76.910156 49.664062 77.5625 49.011719 C 78.015625 48.609375 78.417969 48.457031 78.515625 48.707031 C 78.769531 49.363281 80.929688 49.914062 80.929688 49.3125 C 80.929688 49.011719 81.179688 48.757812 81.484375 48.757812 C 81.785156 48.757812 81.933594 49.109375 81.734375 49.511719 C 81.582031 49.964844 81.734375 50.265625 82.238281 50.265625 C 82.789062 50.265625 82.941406 49.863281 82.839844 48.910156 C 82.6875 47.550781 81.683594 46.75 78.71875 45.742188 L 77.308594 45.238281 L 77.613281 41.320312 C 77.761719 39.207031 78.015625 35.789062 78.214844 33.730469 C 78.667969 28.753906 77.664062 23.222656 75.851562 20.359375 C 74.246094 17.84375 70.574219 15.480469 66.351562 14.277344 C 64.84375 13.824219 62.882812 13.171875 61.980469 12.769531 C 59.96875 11.863281 53.03125 11.863281 51.019531 12.769531 Z M 41.671875 18.449219 C 39.511719 20.808594 37.550781 23.625 38.050781 23.625 C 38.253906 23.625 39.007812 22.820312 39.710938 21.867188 C 40.414062 20.960938 41.46875 19.957031 42.074219 19.65625 C 43.078125 19.203125 43.128906 19.253906 42.675781 20.761719 C 42.375 21.664062 41.871094 23.476562 41.46875 24.882812 C 41.117188 26.238281 40.464844 28.402344 40.0625 29.65625 C 39.660156 30.914062 38.804688 33.78125 38.152344 36.042969 C 36.945312 40.414062 36.042969 41.722656 36.746094 38.050781 C 36.996094 36.894531 37.148438 32.875 37.148438 29.105469 C 37.097656 24.480469 37.296875 21.964844 37.699219 21.3125 C 38.402344 20.257812 42.625 16.589844 43.128906 16.589844 C 43.28125 16.589844 42.625 17.441406 41.671875 18.449219 Z M 73.289062 19.804688 C 74.445312 20.910156 75.398438 22.269531 75.398438 22.871094 C 75.351562 23.726562 75.199219 23.675781 74.292969 22.367188 C 73.691406 21.515625 72.335938 20.007812 71.277344 18.898438 C 67.808594 15.382812 69.269531 16.035156 73.289062 19.804688 Z M 61.828125 17.59375 C 62.429688 17.945312 62.382812 18.097656 61.578125 18.398438 C 61.023438 18.648438 59.265625 19.804688 57.65625 21.011719 C 54.539062 23.375 54.539062 23.476562 56.097656 26.894531 C 56.699219 28.25 58.511719 30.613281 61.828125 34.535156 L 62.785156 35.640625 L 58.410156 35.335938 C 51.824219 34.933594 44.6875 36.242188 40.113281 38.605469 C 39.863281 38.707031 39.710938 38.402344 39.710938 37.953125 C 39.710938 37.5 39.863281 37.246094 40.113281 37.347656 C 40.3125 37.5 40.515625 36.796875 40.515625 35.738281 C 40.566406 34.734375 41.21875 31.214844 41.972656 27.898438 C 42.777344 24.582031 43.480469 21.261719 43.632812 20.507812 C 43.933594 18.449219 47.050781 17.441406 52.226562 17.644531 C 54.488281 17.746094 56.300781 17.695312 56.300781 17.492188 C 56.300781 16.941406 60.921875 16.988281 61.828125 17.59375 Z M 54.035156 37.902344 C 53.382812 38.855469 53.382812 39.15625 53.886719 39.359375 C 54.339844 39.511719 54.136719 39.863281 53.332031 40.566406 L 52.078125 41.570312 L 53.183594 41.921875 C 54.339844 42.324219 54.640625 43.429688 53.785156 43.984375 C 52.929688 44.535156 53.234375 46.496094 54.691406 49.414062 L 56.097656 52.175781 L 52.277344 52.527344 C 50.214844 52.730469 47.101562 53.183594 45.390625 53.535156 C 43.632812 53.886719 42.222656 54.035156 42.222656 53.835938 C 42.222656 53.683594 41.773438 50.570312 41.21875 47 C 40.664062 43.378906 40.214844 40.3125 40.214844 40.113281 C 40.214844 39.960938 41.269531 39.460938 42.574219 39.007812 C 44.839844 38.253906 44.9375 38.253906 46.042969 39.257812 L 47.148438 40.3125 L 47.351562 38.90625 C 47.503906 37.296875 48.609375 36.84375 52.429688 36.746094 L 54.789062 36.695312 Z M 37.550781 72.285156 C 37.5 77.460938 37.449219 73.1875 37.449219 62.832031 C 37.449219 52.480469 37.5 48.207031 37.550781 53.433594 C 37.648438 58.609375 37.648438 67.054688 37.550781 72.285156 Z M 75.550781 81.484375 C 75.300781 81.734375 75.25 73.488281 75.398438 63.183594 L 75.652344 44.484375 L 75.800781 62.785156 C 75.851562 72.886719 75.753906 81.28125 75.550781 81.484375 Z M 54.289062 57.453125 C 54.289062 61.074219 54.339844 61.226562 56.550781 64.140625 C 57.757812 65.75 58.8125 67.308594 58.8125 67.558594 C 58.8125 67.761719 57.855469 70.121094 56.699219 72.734375 L 54.539062 77.511719 L 50.015625 77.210938 C 42.375 76.65625 42.878906 77.007812 42.425781 71.980469 C 42.175781 68.414062 42.273438 64.140625 42.828125 55.945312 C 42.878906 55.394531 43.882812 55.09375 49.011719 54.085938 C 49.5625 53.988281 50.96875 53.886719 52.175781 53.835938 L 54.289062 53.785156 Z M 46.195312 87.96875 C 51.574219 89.925781 53.28125 90.832031 53.28125 91.738281 C 53.28125 92.140625 53.082031 92.492188 52.78125 92.492188 C 52.527344 92.492188 52.277344 93.144531 52.277344 93.949219 C 52.277344 94.804688 52.527344 95.609375 52.78125 95.757812 C 53.082031 95.910156 53.28125 97.066406 53.28125 98.320312 C 53.28125 100.230469 53.132812 100.585938 52.429688 100.382812 C 51.925781 100.230469 50.617188 99.980469 49.511719 99.78125 C 48.40625 99.628906 46.09375 99.027344 44.386719 98.472656 L 41.21875 97.417969 L 41.21875 95.355469 C 41.21875 92.894531 41.820312 86.460938 42.023438 86.460938 C 42.074219 86.460938 43.984375 87.113281 46.195312 87.96875 Z M 46.195312 87.96875 "/>
</g>
</svg>
