<?xml version="1.0" encoding="UTF-8"?>
<svg xmlns="http://www.w3.org/2000/svg" xmlns:xlink="http://www.w3.org/1999/xlink" width="px" height="px" viewBox="0 0 125 101" version="1.1">
<g id="surface1">
<path style=" stroke:none;fill-rule:nonzero;fill:rgb(0%,0%,0%);fill-opacity:1;" d="M 55.5625 6.761719 C 50.167969 8.265625 46.726562 10.972656 44.378906 15.53125 C 43.332031 17.535156 43.179688 18.4375 43.179688 24.046875 C 43.179688 27.503906 43.28125 32.566406 43.429688 35.320312 C 43.679688 40.230469 43.679688 40.28125 42.433594 40.929688 C 40.636719 41.832031 39.9375 42.984375 40.386719 44.238281 C 40.734375 45.140625 41.132812 45.289062 42.433594 45.191406 L 44.078125 44.988281 L 43.628906 55.710938 C 42.832031 74.296875 43.03125 81.210938 44.328125 86.671875 C 45.875 92.785156 46.277344 93.433594 49.519531 94.238281 C 53.164062 95.1875 71.636719 95.1875 75.28125 94.238281 C 78.472656 93.433594 78.921875 92.832031 80.421875 86.921875 C 81.769531 81.710938 81.96875 74.148438 81.171875 55.710938 L 80.722656 44.988281 L 82.367188 45.191406 C 83.667969 45.289062 84.066406 45.140625 84.414062 44.238281 C 84.863281 42.984375 84.164062 41.832031 82.367188 40.929688 C 81.171875 40.328125 81.121094 40.128906 81.269531 35.820312 C 81.320312 33.316406 81.621094 29.960938 81.867188 28.304688 C 82.46875 24.449219 81.820312 18.988281 80.371094 15.679688 C 78.921875 12.222656 75.378906 8.96875 71.585938 7.515625 C 67.792969 6.0625 59.453125 5.660156 55.5625 6.761719 Z M 55.5625 6.761719 "/>
</g>
</svg>
