<?xml version="1.0" standalone="no"?>
<!DOCTYPE svg PUBLIC "-//W3C//DTD SVG 20010904//EN"
 "http://www.w3.org/TR/2001/REC-SVG-20010904/DTD/svg10.dtd">
<svg version="1.0" xmlns="http://www.w3.org/2000/svg"
 width="225.000000pt" height="225.000000pt" viewBox="0 0 225.000000 225.000000"
 preserveAspectRatio="xMidYMid meet">

<g transform="translate(0.000000,225.000000) scale(0.100000,-0.100000)"
fill="#000000" stroke="none">
<path d="M1015 1996 c-16 -8 -62 -24 -102 -35 -40 -12 -91 -36 -115 -54 -105
-81 -119 -151 -92 -488 l5 -76 -32 -7 c-47 -9 -76 -31 -81 -61 -6 -31 11 -46
19 -16 3 12 10 21 15 21 5 0 7 -4 4 -8 -3 -5 5 -8 17 -8 12 1 26 7 30 14 6 10
12 9 24 -4 16 -16 16 -117 -3 -550 -5 -101 -3 -147 6 -163 6 -13 16 -64 20
-114 10 -104 16 -112 105 -153 153 -70 416 -72 573 -4 77 33 89 51 102 160 7
57 17 101 27 112 13 14 14 37 9 145 -3 70 -9 224 -12 340 -5 182 -4 215 9 228
9 8 17 11 19 6 5 -13 48 -24 48 -12 0 6 5 11 11 11 6 0 9 -7 5 -15 -3 -9 0
-15 10 -15 11 0 14 8 12 27 -3 27 -23 43 -82 63 l-28 10 6 78 c3 42 8 110 12
151 9 99 -11 209 -47 266 -32 50 -105 97 -189 121 -30 9 -69 22 -87 30 -40 18
-178 18 -218 0z m-186 -113 c-43 -47 -82 -103 -72 -103 4 0 19 16 33 35 14 18
35 38 47 44 20 9 21 8 12 -22 -6 -18 -16 -54 -24 -82 -7 -27 -20 -70 -28 -95
-8 -25 -25 -82 -38 -127 -24 -87 -42 -113 -28 -40 5 23 8 103 8 178 -1 92 3
142 11 155 14 21 98 94 108 94 3 0 -10 -17 -29 -37z m629 -27 c23 -22 42 -49
42 -61 -1 -17 -4 -16 -22 10 -12 17 -39 47 -60 69 -69 70 -40 57 40 -18z
m-228 44 c12 -7 11 -10 -5 -16 -11 -5 -46 -28 -78 -52 -62 -47 -62 -49 -31
-117 12 -27 48 -74 114 -152 l19 -22 -87 6 c-131 8 -273 -18 -364 -65 -5 -2
-8 4 -8 13 0 9 3 14 8 12 4 -3 8 11 8 32 1 20 14 90 29 156 16 66 30 132 33
147 6 41 68 61 171 57 45 -2 81 -1 81 3 0 11 92 10 110 -2z m-155 -404 c-13
-19 -13 -25 -3 -29 9 -3 5 -10 -11 -24 l-25 -20 22 -7 c23 -8 29 -30 12 -41
-17 -11 -11 -50 18 -108 l28 -55 -76 -7 c-41 -4 -103 -13 -137 -20 -35 -7 -63
-10 -63 -6 0 3 -9 65 -20 136 -11 72 -20 133 -20 137 0 3 21 13 47 22 45 15
47 15 69 -5 l22 -21 4 28 c3 32 25 41 101 43 l47 1 -15 -24z m-328 -684 c-1
-103 -2 -18 -2 188 0 206 1 291 2 187 2 -103 2 -271 0 -375z m756 -183 c-5 -5
-6 159 -3 364 l5 372 3 -364 c1 -201 -1 -368 -5 -372z m-423 478 c0 -72 1 -75
45 -133 24 -32 45 -63 45 -68 0 -4 -19 -51 -42 -103 l-43 -95 -90 6 c-152 11
-142 4 -151 104 -5 71 -3 156 8 319 1 11 21 17 123 37 11 2 39 4 63 5 l42 1 0
-73z m-161 -607 c107 -39 141 -57 141 -75 0 -8 -4 -15 -10 -15 -5 0 -10 -13
-10 -29 0 -17 5 -33 10 -36 6 -3 10 -26 10 -51 0 -38 -3 -45 -17 -41 -10 3
-36 8 -58 12 -22 3 -68 15 -102 26 l-63 21 0 41 c0 49 12 177 16 177 1 0 39
-13 83 -30z"/>
</g>
</svg>
