<?xml version="1.0" standalone="no"?>
<!DOCTYPE svg PUBLIC "-//W3C//DTD SVG 20010904//EN"
 "http://www.w3.org/TR/2001/REC-SVG-20010904/DTD/svg10.dtd">
<svg version="1.0" xmlns="http://www.w3.org/2000/svg"
 width="250.000000pt" height="202.000000pt" viewBox="0 0 250.000000 202.000000"
 preserveAspectRatio="xMidYMid meet">

<g transform="translate(0.000000,202.000000) scale(0.100000,-0.100000)"
fill="#000000" stroke="none">
<path d="M1113 1885 c-108 -30 -177 -84 -224 -175 -21 -40 -24 -58 -24 -170 0
-69 2 -170 5 -225 5 -98 5 -99 -20 -112 -36 -18 -50 -41 -41 -66 7 -18 15 -21
41 -19 l33 4 -9 -214 c-16 -371 -12 -509 14 -618 31 -122 39 -135 104 -151 73
-19 443 -19 516 0 64 16 73 28 103 146 27 104 31 255 15 623 l-9 214 33 -4
c26 -2 34 1 41 19 9 25 -5 48 -41 66 -24 12 -25 16 -22 102 1 50 7 117 12 150
12 77 -1 186 -30 252 -29 69 -100 134 -176 163 -76 29 -243 37 -321 15z"/>
</g>
</svg>
